<mxfile host="app.diagrams.net" agent="Mozilla/5.0 (Windows NT 10.0; Win64; x64) AppleWebKit/537.36 (KHTML, like Gecko) Chrome/130.0.0.0 Safari/537.36" version="24.8.6">
  <diagram name="Page-1" id="c7488fd3-1785-93aa-aadb-54a6760d102a">
    <mxGraphModel dx="1434" dy="772" grid="1" gridSize="10" guides="1" tooltips="1" connect="1" arrows="1" fold="1" page="1" pageScale="1" pageWidth="1100" pageHeight="850" background="none" math="0" shadow="0">
      <root>
        <mxCell id="0" />
        <mxCell id="1" parent="0" />
        <mxCell id="2b4e8129b02d487f-1" value="Flujo de proceso actual" style="swimlane;html=1;childLayout=stackLayout;horizontal=1;startSize=20;horizontalStack=0;rounded=0;shadow=0;labelBackgroundColor=none;strokeWidth=1;fontFamily=Verdana;fontSize=8;align=center;" parent="1" vertex="1">
          <mxGeometry x="200" width="1080" height="630" as="geometry" />
        </mxCell>
        <mxCell id="2b4e8129b02d487f-2" value="Cliente" style="swimlane;html=1;startSize=20;horizontal=0;" parent="2b4e8129b02d487f-1" vertex="1">
          <mxGeometry y="20" width="1080" height="150" as="geometry" />
        </mxCell>
        <mxCell id="2b4e8129b02d487f-18" style="edgeStyle=orthogonalEdgeStyle;rounded=0;html=1;labelBackgroundColor=none;startArrow=none;startFill=0;startSize=5;endArrow=classicThin;endFill=1;endSize=5;jettySize=auto;orthogonalLoop=1;strokeWidth=1;fontFamily=Verdana;fontSize=8" parent="2b4e8129b02d487f-2" source="2b4e8129b02d487f-5" target="2b4e8129b02d487f-6" edge="1">
          <mxGeometry relative="1" as="geometry" />
        </mxCell>
        <mxCell id="2b4e8129b02d487f-5" value="Inicio" style="ellipse;whiteSpace=wrap;html=1;rounded=0;shadow=0;labelBackgroundColor=none;strokeWidth=1;fontFamily=Verdana;fontSize=8;align=center;fillColor=#d5e8d4;strokeColor=#82b366;" parent="2b4e8129b02d487f-2" vertex="1">
          <mxGeometry x="30" y="56.75" width="30" height="30" as="geometry" />
        </mxCell>
        <mxCell id="2b4e8129b02d487f-6" value="Ingreso a portal web" style="rounded=1;whiteSpace=wrap;html=1;shadow=0;labelBackgroundColor=none;strokeWidth=1;fontFamily=Verdana;fontSize=8;align=center;" parent="2b4e8129b02d487f-2" vertex="1">
          <mxGeometry x="80" y="46.75" width="90" height="43.5" as="geometry" />
        </mxCell>
        <mxCell id="qi3FCLcl7_eiKL83yHSi-92" value="Se avisa de entrega a cliente" style="rounded=1;whiteSpace=wrap;html=1;shadow=0;labelBackgroundColor=none;strokeWidth=1;fontFamily=Verdana;fontSize=8;align=center;" vertex="1" parent="2b4e8129b02d487f-2">
          <mxGeometry x="800" y="36.75" width="82.5" height="50" as="geometry" />
        </mxCell>
        <mxCell id="qi3FCLcl7_eiKL83yHSi-43" value="Sistema de geastiÃ³n" style="swimlane;html=1;startSize=20;horizontal=0;" vertex="1" parent="2b4e8129b02d487f-1">
          <mxGeometry y="170" width="1080" height="163" as="geometry">
            <mxRectangle y="170" width="1030" height="40" as="alternateBounds" />
          </mxGeometry>
        </mxCell>
        <mxCell id="qi3FCLcl7_eiKL83yHSi-61" style="edgeStyle=orthogonalEdgeStyle;rounded=0;orthogonalLoop=1;jettySize=auto;html=1;exitX=0.5;exitY=1;exitDx=0;exitDy=0;exitPerimeter=0;entryX=0;entryY=0.75;entryDx=0;entryDy=0;" edge="1" parent="qi3FCLcl7_eiKL83yHSi-43" source="qi3FCLcl7_eiKL83yHSi-44" target="qi3FCLcl7_eiKL83yHSi-56">
          <mxGeometry relative="1" as="geometry" />
        </mxCell>
        <mxCell id="qi3FCLcl7_eiKL83yHSi-44" value="Usuario registrado" style="strokeWidth=1;html=1;shape=mxgraph.flowchart.decision;whiteSpace=wrap;rounded=1;shadow=0;labelBackgroundColor=none;fontFamily=Verdana;fontSize=8;align=center;fillColor=#fff2cc;strokeColor=#d6b656;" vertex="1" parent="qi3FCLcl7_eiKL83yHSi-43">
          <mxGeometry x="50" y="30" width="70" height="60" as="geometry" />
        </mxCell>
        <mxCell id="qi3FCLcl7_eiKL83yHSi-56" value="Registro de usuario" style="rounded=1;whiteSpace=wrap;html=1;shadow=0;labelBackgroundColor=none;strokeWidth=1;fontFamily=Verdana;fontSize=8;align=center;" vertex="1" parent="qi3FCLcl7_eiKL83yHSi-43">
          <mxGeometry x="140" y="99.99999999999994" width="70" height="37" as="geometry" />
        </mxCell>
        <mxCell id="qi3FCLcl7_eiKL83yHSi-73" style="edgeStyle=orthogonalEdgeStyle;rounded=0;orthogonalLoop=1;jettySize=auto;html=1;entryX=0;entryY=0.5;entryDx=0;entryDy=0;" edge="1" parent="qi3FCLcl7_eiKL83yHSi-43" source="qi3FCLcl7_eiKL83yHSi-57" target="qi3FCLcl7_eiKL83yHSi-72">
          <mxGeometry relative="1" as="geometry" />
        </mxCell>
        <mxCell id="qi3FCLcl7_eiKL83yHSi-83" style="edgeStyle=orthogonalEdgeStyle;rounded=0;orthogonalLoop=1;jettySize=auto;html=1;entryX=0;entryY=0.75;entryDx=0;entryDy=0;exitX=0.5;exitY=1;exitDx=0;exitDy=0;exitPerimeter=0;" edge="1" parent="qi3FCLcl7_eiKL83yHSi-43" source="qi3FCLcl7_eiKL83yHSi-57" target="qi3FCLcl7_eiKL83yHSi-79">
          <mxGeometry relative="1" as="geometry" />
        </mxCell>
        <mxCell id="qi3FCLcl7_eiKL83yHSi-57" value="Empresa registrada" style="strokeWidth=1;html=1;shape=mxgraph.flowchart.decision;whiteSpace=wrap;rounded=1;shadow=0;labelBackgroundColor=none;fontFamily=Verdana;fontSize=8;align=center;fillColor=#fff2cc;strokeColor=#d6b656;" vertex="1" parent="qi3FCLcl7_eiKL83yHSi-43">
          <mxGeometry x="240" y="30" width="70" height="60" as="geometry" />
        </mxCell>
        <mxCell id="qi3FCLcl7_eiKL83yHSi-72" value="Creacion de orden" style="rounded=1;whiteSpace=wrap;html=1;shadow=0;labelBackgroundColor=none;strokeWidth=1;fontFamily=Verdana;fontSize=8;align=center;" vertex="1" parent="qi3FCLcl7_eiKL83yHSi-43">
          <mxGeometry x="500" y="41.49999999999994" width="70" height="37" as="geometry" />
        </mxCell>
        <mxCell id="qi3FCLcl7_eiKL83yHSi-74" style="edgeStyle=orthogonalEdgeStyle;rounded=0;orthogonalLoop=1;jettySize=auto;html=1;entryX=0;entryY=0.5;entryDx=0;entryDy=0;entryPerimeter=0;" edge="1" parent="qi3FCLcl7_eiKL83yHSi-43" source="qi3FCLcl7_eiKL83yHSi-44" target="qi3FCLcl7_eiKL83yHSi-57">
          <mxGeometry relative="1" as="geometry" />
        </mxCell>
        <mxCell id="qi3FCLcl7_eiKL83yHSi-76" value="No" style="text;html=1;align=center;verticalAlign=middle;resizable=0;points=[];autosize=1;strokeColor=none;fillColor=none;" vertex="1" parent="qi3FCLcl7_eiKL83yHSi-43">
          <mxGeometry x="85" y="90" width="40" height="30" as="geometry" />
        </mxCell>
        <mxCell id="qi3FCLcl7_eiKL83yHSi-77" value="Si" style="text;html=1;align=center;verticalAlign=middle;resizable=0;points=[];autosize=1;strokeColor=none;fillColor=none;" vertex="1" parent="qi3FCLcl7_eiKL83yHSi-43">
          <mxGeometry x="310" y="30" width="30" height="30" as="geometry" />
        </mxCell>
        <mxCell id="qi3FCLcl7_eiKL83yHSi-78" value="No" style="text;html=1;align=center;verticalAlign=middle;resizable=0;points=[];autosize=1;strokeColor=none;fillColor=none;" vertex="1" parent="qi3FCLcl7_eiKL83yHSi-43">
          <mxGeometry x="290" y="90" width="40" height="30" as="geometry" />
        </mxCell>
        <mxCell id="qi3FCLcl7_eiKL83yHSi-99" style="edgeStyle=orthogonalEdgeStyle;rounded=0;orthogonalLoop=1;jettySize=auto;html=1;" edge="1" parent="qi3FCLcl7_eiKL83yHSi-43" source="qi3FCLcl7_eiKL83yHSi-79">
          <mxGeometry relative="1" as="geometry">
            <mxPoint x="240" y="60" as="targetPoint" />
            <Array as="points">
              <mxPoint x="380" y="150" />
              <mxPoint x="241" y="150" />
            </Array>
          </mxGeometry>
        </mxCell>
        <mxCell id="qi3FCLcl7_eiKL83yHSi-79" value="Registro de empresa" style="rounded=1;whiteSpace=wrap;html=1;shadow=0;labelBackgroundColor=none;strokeWidth=1;fontFamily=Verdana;fontSize=8;align=center;" vertex="1" parent="qi3FCLcl7_eiKL83yHSi-43">
          <mxGeometry x="345" y="100" width="70" height="40" as="geometry" />
        </mxCell>
        <mxCell id="qi3FCLcl7_eiKL83yHSi-98" style="edgeStyle=orthogonalEdgeStyle;rounded=0;orthogonalLoop=1;jettySize=auto;html=1;entryX=0;entryY=0.5;entryDx=0;entryDy=0;" edge="1" parent="qi3FCLcl7_eiKL83yHSi-43" source="qi3FCLcl7_eiKL83yHSi-96" target="qi3FCLcl7_eiKL83yHSi-93">
          <mxGeometry relative="1" as="geometry" />
        </mxCell>
        <mxCell id="qi3FCLcl7_eiKL83yHSi-96" value="Cierre de orden" style="rounded=1;whiteSpace=wrap;html=1;shadow=0;labelBackgroundColor=none;strokeWidth=1;fontFamily=Verdana;fontSize=8;align=center;" vertex="1" parent="qi3FCLcl7_eiKL83yHSi-43">
          <mxGeometry x="930" y="49.99999999999994" width="70" height="37" as="geometry" />
        </mxCell>
        <mxCell id="qi3FCLcl7_eiKL83yHSi-93" value="Fin" style="ellipse;whiteSpace=wrap;html=1;rounded=0;shadow=0;labelBackgroundColor=none;strokeWidth=2;fontFamily=Verdana;fontSize=8;align=center;fillColor=#f8cecc;strokeColor=#b85450;" vertex="1" parent="qi3FCLcl7_eiKL83yHSi-43">
          <mxGeometry x="1040" y="53.5" width="30" height="30" as="geometry" />
        </mxCell>
        <mxCell id="qi3FCLcl7_eiKL83yHSi-101" style="edgeStyle=orthogonalEdgeStyle;rounded=0;orthogonalLoop=1;jettySize=auto;html=1;entryX=0.5;entryY=0;entryDx=0;entryDy=0;entryPerimeter=0;" edge="1" parent="qi3FCLcl7_eiKL83yHSi-43" source="qi3FCLcl7_eiKL83yHSi-56" target="qi3FCLcl7_eiKL83yHSi-44">
          <mxGeometry relative="1" as="geometry">
            <Array as="points">
              <mxPoint x="175" y="150" />
              <mxPoint x="40" y="150" />
              <mxPoint x="40" y="30" />
            </Array>
          </mxGeometry>
        </mxCell>
        <mxCell id="2b4e8129b02d487f-3" value="&lt;font face=&quot;Helvetica&quot;&gt;Servicio al cliente&amp;nbsp;&lt;span style=&quot;background-color: initial;&quot;&gt;Setralog&lt;/span&gt;&lt;/font&gt;" style="swimlane;html=1;startSize=20;horizontal=0;" parent="2b4e8129b02d487f-1" vertex="1">
          <mxGeometry y="333" width="1080" height="163" as="geometry">
            <mxRectangle y="170" width="1030" height="40" as="alternateBounds" />
          </mxGeometry>
        </mxCell>
        <mxCell id="2b4e8129b02d487f-12" value="VerificaciÃ³n de orden y asignaciÃ³n de transporte" style="rounded=1;whiteSpace=wrap;html=1;shadow=0;labelBackgroundColor=none;strokeWidth=1;fontFamily=Verdana;fontSize=8;align=center;" parent="2b4e8129b02d487f-3" vertex="1">
          <mxGeometry x="485" y="50" width="100" height="50" as="geometry" />
        </mxCell>
        <mxCell id="qi3FCLcl7_eiKL83yHSi-95" style="edgeStyle=orthogonalEdgeStyle;rounded=0;orthogonalLoop=1;jettySize=auto;html=1;exitX=0.5;exitY=0;exitDx=0;exitDy=0;" edge="1" parent="2b4e8129b02d487f-3" source="l3kMpNzpnFwocQV2lXB--59">
          <mxGeometry relative="1" as="geometry">
            <mxPoint x="840" y="-223" as="targetPoint" />
          </mxGeometry>
        </mxCell>
        <mxCell id="l3kMpNzpnFwocQV2lXB--59" value="Se avisa a servicio al cliente" style="rounded=1;whiteSpace=wrap;html=1;shadow=0;labelBackgroundColor=none;strokeWidth=1;fontFamily=Verdana;fontSize=8;align=center;" parent="2b4e8129b02d487f-3" vertex="1">
          <mxGeometry x="798.75" y="42" width="82.5" height="50" as="geometry" />
        </mxCell>
        <mxCell id="qi3FCLcl7_eiKL83yHSi-58" style="edgeStyle=orthogonalEdgeStyle;rounded=0;orthogonalLoop=1;jettySize=auto;html=1;exitX=0.5;exitY=1;exitDx=0;exitDy=0;entryX=0.5;entryY=0;entryDx=0;entryDy=0;entryPerimeter=0;" edge="1" parent="2b4e8129b02d487f-1" source="2b4e8129b02d487f-6" target="qi3FCLcl7_eiKL83yHSi-44">
          <mxGeometry relative="1" as="geometry" />
        </mxCell>
        <mxCell id="qi3FCLcl7_eiKL83yHSi-87" style="edgeStyle=orthogonalEdgeStyle;rounded=0;orthogonalLoop=1;jettySize=auto;html=1;entryX=0.5;entryY=0;entryDx=0;entryDy=0;" edge="1" parent="2b4e8129b02d487f-1" source="qi3FCLcl7_eiKL83yHSi-72" target="2b4e8129b02d487f-12">
          <mxGeometry relative="1" as="geometry" />
        </mxCell>
        <mxCell id="qi3FCLcl7_eiKL83yHSi-89" style="edgeStyle=orthogonalEdgeStyle;rounded=0;orthogonalLoop=1;jettySize=auto;html=1;entryX=0.437;entryY=0.074;entryDx=0;entryDy=0;entryPerimeter=0;" edge="1" parent="2b4e8129b02d487f-1" source="2b4e8129b02d487f-12" target="l3kMpNzpnFwocQV2lXB--11">
          <mxGeometry relative="1" as="geometry" />
        </mxCell>
        <mxCell id="2b4e8129b02d487f-4" value="Transporte" style="swimlane;html=1;startSize=20;horizontal=0;" parent="2b4e8129b02d487f-1" vertex="1">
          <mxGeometry y="496" width="1080" height="124" as="geometry" />
        </mxCell>
        <mxCell id="qi3FCLcl7_eiKL83yHSi-90" style="edgeStyle=orthogonalEdgeStyle;rounded=0;orthogonalLoop=1;jettySize=auto;html=1;entryX=0;entryY=0.5;entryDx=0;entryDy=0;" edge="1" parent="2b4e8129b02d487f-4" source="l3kMpNzpnFwocQV2lXB--11" target="qi3FCLcl7_eiKL83yHSi-84">
          <mxGeometry relative="1" as="geometry" />
        </mxCell>
        <mxCell id="l3kMpNzpnFwocQV2lXB--11" value="En transporte" style="rounded=1;whiteSpace=wrap;html=1;shadow=0;labelBackgroundColor=none;strokeWidth=1;fontFamily=Verdana;fontSize=8;align=center;" parent="2b4e8129b02d487f-4" vertex="1">
          <mxGeometry x="492.5" y="49.05" width="95" height="39.63" as="geometry" />
        </mxCell>
        <mxCell id="qi3FCLcl7_eiKL83yHSi-84" value="Producto entregado" style="rounded=1;whiteSpace=wrap;html=1;shadow=0;labelBackgroundColor=none;strokeWidth=1;fontFamily=Verdana;fontSize=8;align=center;" vertex="1" parent="2b4e8129b02d487f-4">
          <mxGeometry x="790" y="45.36" width="100" height="47.01" as="geometry" />
        </mxCell>
        <mxCell id="qi3FCLcl7_eiKL83yHSi-91" style="edgeStyle=orthogonalEdgeStyle;rounded=0;orthogonalLoop=1;jettySize=auto;html=1;entryX=0.5;entryY=1;entryDx=0;entryDy=0;" edge="1" parent="2b4e8129b02d487f-1" source="qi3FCLcl7_eiKL83yHSi-84" target="l3kMpNzpnFwocQV2lXB--59">
          <mxGeometry relative="1" as="geometry" />
        </mxCell>
        <mxCell id="qi3FCLcl7_eiKL83yHSi-97" style="edgeStyle=orthogonalEdgeStyle;rounded=0;orthogonalLoop=1;jettySize=auto;html=1;entryX=0.5;entryY=1;entryDx=0;entryDy=0;" edge="1" parent="2b4e8129b02d487f-1" source="l3kMpNzpnFwocQV2lXB--59" target="qi3FCLcl7_eiKL83yHSi-96">
          <mxGeometry relative="1" as="geometry" />
        </mxCell>
        <mxCell id="qi3FCLcl7_eiKL83yHSi-75" value="Si" style="text;html=1;align=center;verticalAlign=middle;resizable=0;points=[];autosize=1;strokeColor=none;fillColor=none;" vertex="1" parent="1">
          <mxGeometry x="295" y="198" width="30" height="30" as="geometry" />
        </mxCell>
      </root>
    </mxGraphModel>
  </diagram>
</mxfile>
